<svg width="236" height="236" viewBox="0 0 236 236" fill="none" xmlns="http://www.w3.org/2000/svg">
<path d="M113.083 0C53.985 0 9.83334 80.4662 9.83334 152.417C9.83334 153.085 9.86284 153.724 9.90217 154.364L9.95134 155.534C10.5512 187.708 20.355 214.986 38.2812 234.417C39.2055 235.43 40.5232 236 41.89 236H184.277C185.653 236 186.961 235.43 187.895 234.417C205.821 214.986 215.625 187.708 216.225 155.534L216.274 154.364C216.304 153.724 216.333 153.085 216.333 152.417C216.333 80.4662 172.182 0 113.083 0ZM113.083 9.83333C165.465 9.83333 206.146 85.8253 206.5 151.571C206.353 151.6 206.185 151.63 206.028 151.669C204.169 152.063 202.075 152.446 199.676 152.81C199.577 152.82 199.469 152.839 199.371 152.849C198.555 152.967 197.532 153.076 196.657 153.193V132.75C196.657 130.036 194.454 127.833 191.74 127.833C189.026 127.833 186.833 130.036 186.833 132.75V154.314C185.083 154.492 183.382 154.668 181.504 154.826C181.051 154.865 180.609 154.904 180.147 154.944C179.153 155.022 178.032 155.091 177 155.17V142.583C177 139.869 174.797 137.667 172.083 137.667C169.369 137.667 167.167 139.869 167.167 142.583V155.839C163.981 156.025 160.726 156.202 157.333 156.36V132.75C157.333 130.036 155.131 127.833 152.417 127.833C149.703 127.833 147.5 130.036 147.5 132.75V156.733C146.094 156.783 144.737 156.842 143.301 156.891C142.662 156.91 142.003 156.93 141.354 156.94C140.145 156.969 138.886 156.989 137.657 157.019V142.583C137.657 139.869 135.454 137.667 132.74 137.667C130.026 137.667 127.833 139.869 127.833 142.583V157.225C127.656 157.225 127.469 157.225 127.292 157.235C124.234 157.274 121.117 157.284 118 157.304V132.75C118 130.036 115.797 127.833 113.083 127.833C110.369 127.833 108.167 130.036 108.167 132.75V157.294C105.049 157.284 101.932 157.264 98.8742 157.225C98.4907 157.215 98.0973 157.215 97.7138 157.215C93.3183 157.146 89.0212 157.058 84.8027 156.94C84.1537 156.92 83.5047 156.901 82.8557 156.891C81.4298 156.852 80.0728 156.783 78.6667 156.733V142.583C78.6667 139.869 76.464 137.667 73.75 137.667C71.036 137.667 68.8333 139.869 68.8333 142.583V156.36C65.4408 156.202 62.186 156.025 59 155.839V132.75C59 130.036 56.7973 127.833 54.0833 127.833C51.3693 127.833 49.1667 130.036 49.1667 132.75V155.17C48.144 155.091 47.023 155.022 46.02 154.944C45.5578 154.904 45.1153 154.865 44.663 154.826C42.7848 154.668 41.0837 154.492 39.3333 154.314V142.583C39.3333 139.869 37.1307 137.667 34.4167 137.667C31.7027 137.667 29.5 139.869 29.5 142.583V153.193C28.6248 153.076 27.612 152.967 26.786 152.849C26.6877 152.839 26.5795 152.82 26.4812 152.81C24.0818 152.446 21.9873 152.063 20.1288 151.669C19.9813 151.63 19.8142 151.6 19.6667 151.571C20.0207 85.8253 60.7012 9.83333 113.083 9.83333ZM127.46 193.628C126.702 195.467 124.903 196.667 122.917 196.667H103.25C101.264 196.667 99.4642 195.467 98.707 193.628C97.94 191.789 98.3628 189.675 99.769 188.269L109.602 178.436C111.52 176.518 114.637 176.518 116.554 178.436L126.388 188.269C127.804 189.685 128.227 191.789 127.46 193.628Z" fill="#006782"/>
<path d="M113.083 118C121.215 118 127.833 111.382 127.833 103.25V93.4167C127.833 85.2845 121.215 78.6667 113.083 78.6667C104.951 78.6667 98.3333 85.2845 98.3333 93.4167V103.25C98.3333 111.382 104.951 118 113.083 118ZM108.167 93.4167C108.167 90.7027 110.369 88.5 113.083 88.5C115.797 88.5 118 90.7027 118 93.4167V103.25C118 105.964 115.797 108.167 113.083 108.167C110.369 108.167 108.167 105.964 108.167 103.25V93.4167Z" fill="#006782"/>
</svg>
